<?xml version="1.0" encoding="utf-8"?>
<!-- Generator: Adobe Illustrator 21.1.0, SVG Export Plug-In . SVG Version: 6.00 Build 0)  -->
<svg version="1.1"
	 id="Layer_1" xmlns:cc="http://creativecommons.org/ns#" xmlns:dc="http://purl.org/dc/elements/1.1/" xmlns:inkscape="http://www.inkscape.org/namespaces/inkscape" xmlns:rdf="http://www.w3.org/1999/02/22-rdf-syntax-ns#" xmlns:sodipodi="http://sodipodi.sourceforge.net/DTD/sodipodi-0.dtd" xmlns:svg="http://www.w3.org/2000/svg"
	 xmlns="http://www.w3.org/2000/svg" xmlns:xlink="http://www.w3.org/1999/xlink" x="0px" y="0px" viewBox="0 0 100 125"
	 style="enable-background:new 0 0 100 125;" xml:space="preserve">
<g transform="translate(0,-952.36218)">
	<path d="M81,970.4H35c-0.8,0-1.6,0.3-2.1,0.9l-16,16c-0.6,0.6-0.9,1.3-0.9,2.1v68c0,1.6,1.4,3,3,3h62c1.6,0,3-1.4,3-3v-84
		c0-1.5-1.2-2.8-2.7-3C81.2,970.4,81.1,970.4,81,970.4z M78,1054.4H22v-60h15c1.6,0,3-1.4,3-3v-15h38V1054.4z M34,988.4h-9.8
		l9.8-9.8V988.4z M52,1004.4H28c0,0-0.1,0-0.1,0c-1.7,0-3,1.4-3,3s1.4,3,3,3h24c1.7,0.1,3.1-1.2,3.2-2.8s-1.2-3.1-2.8-3.2
		C52.2,1004.4,52.1,1004.4,52,1004.4z M72,1015.4H28c0,0-0.1,0-0.1,0c-1.7,0-3,1.4-3,3s1.4,3,3,3h44c0,0,0,0,0,0
		c1.7,0.1,3.1-1.2,3.2-2.8s-1.2-3.1-2.8-3.2C72.2,1015.4,72.1,1015.4,72,1015.4z M72,1026.4H28c0,0-0.1,0-0.1,0c-1.7,0-3,1.4-3,3
		s1.4,3,3,3h44c1.7,0.1,3.1-1.2,3.2-2.8c0.1-1.7-1.2-3.1-2.8-3.2C72.2,1026.4,72.1,1026.4,72,1026.4z M52,1037.4H28c0,0-0.1,0-0.1,0
		c-1.7,0-3,1.4-3,3s1.4,3,3,3h24c1.7,0.1,3.1-1.2,3.2-2.8c0.1-1.7-1.2-3.1-2.8-3.2C52.2,1037.4,52.1,1037.4,52,1037.4z"/>
</g>
</svg>
