<?xml version="1.0" encoding="utf-8"?>
<!-- Generator: Adobe Illustrator 21.1.0, SVG Export Plug-In . SVG Version: 6.00 Build 0)  -->
<svg version="1.1"
	 id="Layer_1" xmlns:cc="http://creativecommons.org/ns#" xmlns:dc="http://purl.org/dc/elements/1.1/" xmlns:inkscape="http://www.inkscape.org/namespaces/inkscape" xmlns:rdf="http://www.w3.org/1999/02/22-rdf-syntax-ns#" xmlns:sodipodi="http://sodipodi.sourceforge.net/DTD/sodipodi-0.dtd" xmlns:svg="http://www.w3.org/2000/svg"
	 xmlns="http://www.w3.org/2000/svg" xmlns:xlink="http://www.w3.org/1999/xlink" x="0px" y="0px" viewBox="0 0 100 125"
	 style="enable-background:new 0 0 100 125;" xml:space="preserve">
<g transform="translate(0,-952.36218)">
	<path d="M18.7,970.4c-1.5,0.2-2.7,1.5-2.7,3v84c0,1.6,1.4,3,3,3h62c1.6,0,3-1.4,3-3v-68c0-0.8-0.3-1.6-0.9-2.1l-16-16
		c-0.6-0.6-1.3-0.9-2.1-0.9H19C18.9,970.4,18.8,970.4,18.7,970.4z M22,976.4h38v15c0,1.6,1.4,3,3,3h15v60H22V976.4z M66,978.6
		l9.8,9.8H66V978.6z M47.7,1004.4c-1.7,0.1-2.9,1.5-2.8,3.2s1.5,2.9,3.2,2.8h24c1.7,0,3-1.3,3-3s-1.3-3-3-3c0,0-0.1,0-0.1,0H48
		C47.9,1004.4,47.8,1004.4,47.7,1004.4z M27.7,1015.4c-1.7,0.1-2.9,1.5-2.8,3.2s1.5,2.9,3.2,2.8c0,0,0,0,0,0h44c1.7,0,3-1.3,3-3
		s-1.3-3-3-3c0,0-0.1,0-0.1,0H28C27.9,1015.4,27.8,1015.4,27.7,1015.4z M27.7,1026.4c-1.7,0.1-2.9,1.5-2.8,3.2
		c0.1,1.7,1.5,2.9,3.2,2.8h44c1.7,0,3-1.3,3-3s-1.3-3-3-3c0,0-0.1,0-0.1,0H28C27.9,1026.4,27.8,1026.4,27.7,1026.4z M47.7,1037.4
		c-1.7,0.1-2.9,1.5-2.8,3.2c0.1,1.7,1.5,2.9,3.2,2.8h24c1.7,0,3-1.3,3-3s-1.3-3-3-3c0,0-0.1,0-0.1,0H48
		C47.9,1037.4,47.8,1037.4,47.7,1037.4z"/>
</g>
</svg>
